# xmcd
#
# Track frame offsets:
#	150
#	19875
#	39477
#	57942
#	75237
#	93605
#	111460
#	131245
#	150665
#	171262
#	189534
#
# Disc length: 2732 seconds
#
# Revision: 0
# Processed by: cddbd v1.5.2PL0 Copyright (c) Steve Scherf et al.
# Submitted via: EasyCDDAExtractor 15.3.0.1
#
DISCID=900aaa0b
DTITLE=India - Unica
DYEAR=2010
DGENRE=Latin
TTITLE0=Smile
TTITLE1=Estupida
TTITLE2=Si El Te Habla De Mi
TTITLE3=Te Vas A Arrepentir
TTITLE4=Turn Off The Lights
TTITLE5=Si Estoy Loca
TTITLE6=Crying
TTITLE7=Ni Fines De Semana Ni Dias Festivos
TTITLE8=Amor Secreto
TTITLE9=Triste
TTITLE10=Estupida (Version Balada)
EXTD=
EXTT0=
EXTT1=
EXTT2=
EXTT3=
EXTT4=
EXTT5=
EXTT6=
EXTT7=
EXTT8=
EXTT9=
EXTT10=
PLAYORDER=
